<mxfile host="app.diagrams.net" agent="Mozilla/5.0 (Windows NT 10.0; Win64; x64) AppleWebKit/537.36 (KHTML, like Gecko) Chrome/130.0.0.0 YaBrowser/24.12.0.0 Safari/537.36" version="25.0.3">
  <diagram id="C5RBs43oDa-KdzZeNtuy" name="Page-1">
    <mxGraphModel dx="2327" dy="1979" grid="1" gridSize="10" guides="1" tooltips="1" connect="1" arrows="1" fold="1" page="1" pageScale="1" pageWidth="827" pageHeight="1169" math="0" shadow="0">
      <root>
        <mxCell id="WIyWlLk6GJQsqaUBKTNV-0" />
        <mxCell id="WIyWlLk6GJQsqaUBKTNV-1" parent="WIyWlLk6GJQsqaUBKTNV-0" />
        <mxCell id="eYQngu6aigxKbDQcGf7c-2" value="" style="edgeStyle=orthogonalEdgeStyle;rounded=0;orthogonalLoop=1;jettySize=auto;html=1;" parent="WIyWlLk6GJQsqaUBKTNV-1" source="eYQngu6aigxKbDQcGf7c-0" target="eYQngu6aigxKbDQcGf7c-1" edge="1">
          <mxGeometry relative="1" as="geometry" />
        </mxCell>
        <mxCell id="eYQngu6aigxKbDQcGf7c-0" value="Начало" style="ellipse;whiteSpace=wrap;html=1;" parent="WIyWlLk6GJQsqaUBKTNV-1" vertex="1">
          <mxGeometry x="370" width="130" height="80" as="geometry" />
        </mxCell>
        <mxCell id="eYQngu6aigxKbDQcGf7c-6" value="" style="edgeStyle=orthogonalEdgeStyle;rounded=0;orthogonalLoop=1;jettySize=auto;html=1;" parent="WIyWlLk6GJQsqaUBKTNV-1" source="eYQngu6aigxKbDQcGf7c-1" target="eYQngu6aigxKbDQcGf7c-5" edge="1">
          <mxGeometry relative="1" as="geometry" />
        </mxCell>
        <mxCell id="eYQngu6aigxKbDQcGf7c-1" value="double f( double x)" style="shape=process;whiteSpace=wrap;html=1;backgroundOutline=1;" parent="WIyWlLk6GJQsqaUBKTNV-1" vertex="1">
          <mxGeometry x="365" y="130" width="140" height="60" as="geometry" />
        </mxCell>
        <mxCell id="eYQngu6aigxKbDQcGf7c-5" value="return atan(x);" style="ellipse;whiteSpace=wrap;html=1;" parent="WIyWlLk6GJQsqaUBKTNV-1" vertex="1">
          <mxGeometry x="367.5" y="250" width="135" height="80" as="geometry" />
        </mxCell>
        <mxCell id="eYQngu6aigxKbDQcGf7c-7" value="{" style="text;html=1;align=center;verticalAlign=middle;resizable=0;points=[];autosize=1;strokeColor=none;fillColor=none;" parent="WIyWlLk6GJQsqaUBKTNV-1" vertex="1">
          <mxGeometry x="395" y="198" width="30" height="30" as="geometry" />
        </mxCell>
        <mxCell id="eYQngu6aigxKbDQcGf7c-8" value="}" style="text;html=1;align=center;verticalAlign=middle;resizable=0;points=[];autosize=1;strokeColor=none;fillColor=none;" parent="WIyWlLk6GJQsqaUBKTNV-1" vertex="1">
          <mxGeometry x="440" y="330" width="30" height="30" as="geometry" />
        </mxCell>
        <mxCell id="eYQngu6aigxKbDQcGf7c-11" value="" style="edgeStyle=orthogonalEdgeStyle;rounded=0;orthogonalLoop=1;jettySize=auto;html=1;" parent="WIyWlLk6GJQsqaUBKTNV-1" source="eYQngu6aigxKbDQcGf7c-9" edge="1">
          <mxGeometry relative="1" as="geometry">
            <mxPoint x="-95" y="630" as="targetPoint" />
          </mxGeometry>
        </mxCell>
        <mxCell id="eYQngu6aigxKbDQcGf7c-9" value="double rad_n(double x, int n)" style="shape=process;whiteSpace=wrap;html=1;backgroundOutline=1;" parent="WIyWlLk6GJQsqaUBKTNV-1" vertex="1">
          <mxGeometry x="-172.5" y="530" width="155" height="60" as="geometry" />
        </mxCell>
        <mxCell id="eYQngu6aigxKbDQcGf7c-12" value="{" style="text;html=1;align=center;verticalAlign=middle;resizable=0;points=[];autosize=1;strokeColor=none;fillColor=none;" parent="WIyWlLk6GJQsqaUBKTNV-1" vertex="1">
          <mxGeometry x="-125" y="598" width="30" height="30" as="geometry" />
        </mxCell>
        <mxCell id="eYQngu6aigxKbDQcGf7c-36" value="" style="edgeStyle=orthogonalEdgeStyle;rounded=0;orthogonalLoop=1;jettySize=auto;html=1;exitX=0.5;exitY=1;exitDx=0;exitDy=0;" parent="WIyWlLk6GJQsqaUBKTNV-1" target="eYQngu6aigxKbDQcGf7c-35" edge="1">
          <mxGeometry relative="1" as="geometry">
            <mxPoint x="435" y="1360" as="sourcePoint" />
          </mxGeometry>
        </mxCell>
        <mxCell id="V9U3sVe_B-FB67b7JL7a-5" style="edgeStyle=orthogonalEdgeStyle;rounded=0;orthogonalLoop=1;jettySize=auto;html=1;exitX=0.5;exitY=1;exitDx=0;exitDy=0;entryX=0.5;entryY=0;entryDx=0;entryDy=0;" edge="1" parent="WIyWlLk6GJQsqaUBKTNV-1" source="eYQngu6aigxKbDQcGf7c-34">
          <mxGeometry relative="1" as="geometry">
            <mxPoint x="435" y="1300" as="targetPoint" />
          </mxGeometry>
        </mxCell>
        <mxCell id="eYQngu6aigxKbDQcGf7c-34" value="int main()" style="shape=process;whiteSpace=wrap;html=1;backgroundOutline=1;" parent="WIyWlLk6GJQsqaUBKTNV-1" vertex="1">
          <mxGeometry x="375" y="1200" width="120" height="60" as="geometry" />
        </mxCell>
        <mxCell id="eYQngu6aigxKbDQcGf7c-39" value="" style="edgeStyle=orthogonalEdgeStyle;rounded=0;orthogonalLoop=1;jettySize=auto;html=1;" parent="WIyWlLk6GJQsqaUBKTNV-1" source="eYQngu6aigxKbDQcGf7c-35" target="eYQngu6aigxKbDQcGf7c-38" edge="1">
          <mxGeometry relative="1" as="geometry" />
        </mxCell>
        <mxCell id="eYQngu6aigxKbDQcGf7c-35" value="double shag = (b - a) / k;" style="whiteSpace=wrap;html=1;" parent="WIyWlLk6GJQsqaUBKTNV-1" vertex="1">
          <mxGeometry x="352.5" y="1388" width="165" height="60" as="geometry" />
        </mxCell>
        <mxCell id="eYQngu6aigxKbDQcGf7c-37" value="{" style="text;html=1;align=center;verticalAlign=middle;resizable=0;points=[];autosize=1;strokeColor=none;fillColor=none;" parent="WIyWlLk6GJQsqaUBKTNV-1" vertex="1">
          <mxGeometry x="405" y="1260" width="30" height="30" as="geometry" />
        </mxCell>
        <mxCell id="eYQngu6aigxKbDQcGf7c-41" value="" style="edgeStyle=orthogonalEdgeStyle;rounded=0;orthogonalLoop=1;jettySize=auto;html=1;" parent="WIyWlLk6GJQsqaUBKTNV-1" source="eYQngu6aigxKbDQcGf7c-38" target="eYQngu6aigxKbDQcGf7c-40" edge="1">
          <mxGeometry relative="1" as="geometry" />
        </mxCell>
        <mxCell id="eYQngu6aigxKbDQcGf7c-38" value="for (double x = a; x &amp;lt;= b;x += shag)&amp;nbsp;" style="shape=hexagon;perimeter=hexagonPerimeter2;whiteSpace=wrap;html=1;fixedSize=1;" parent="WIyWlLk6GJQsqaUBKTNV-1" vertex="1">
          <mxGeometry x="337.5" y="1470" width="195" height="80" as="geometry" />
        </mxCell>
        <mxCell id="eYQngu6aigxKbDQcGf7c-43" value="" style="edgeStyle=orthogonalEdgeStyle;rounded=0;orthogonalLoop=1;jettySize=auto;html=1;" parent="WIyWlLk6GJQsqaUBKTNV-1" source="eYQngu6aigxKbDQcGf7c-40" target="eYQngu6aigxKbDQcGf7c-42" edge="1">
          <mxGeometry relative="1" as="geometry" />
        </mxCell>
        <mxCell id="eYQngu6aigxKbDQcGf7c-40" value="double Sn = rad_n(x, n);" style="whiteSpace=wrap;html=1;" parent="WIyWlLk6GJQsqaUBKTNV-1" vertex="1">
          <mxGeometry x="362.5" y="1580" width="145" height="60" as="geometry" />
        </mxCell>
        <mxCell id="eYQngu6aigxKbDQcGf7c-47" value="" style="edgeStyle=orthogonalEdgeStyle;rounded=0;orthogonalLoop=1;jettySize=auto;html=1;" parent="WIyWlLk6GJQsqaUBKTNV-1" source="eYQngu6aigxKbDQcGf7c-42" target="eYQngu6aigxKbDQcGf7c-46" edge="1">
          <mxGeometry relative="1" as="geometry" />
        </mxCell>
        <mxCell id="eYQngu6aigxKbDQcGf7c-42" value="double Se = rad_e(x, n, s);" style="whiteSpace=wrap;html=1;" parent="WIyWlLk6GJQsqaUBKTNV-1" vertex="1">
          <mxGeometry x="375" y="1680" width="120" height="60" as="geometry" />
        </mxCell>
        <mxCell id="eYQngu6aigxKbDQcGf7c-45" value="{" style="text;html=1;align=center;verticalAlign=middle;resizable=0;points=[];autosize=1;strokeColor=none;fillColor=none;" parent="WIyWlLk6GJQsqaUBKTNV-1" vertex="1">
          <mxGeometry x="405" y="1548" width="30" height="30" as="geometry" />
        </mxCell>
        <mxCell id="eYQngu6aigxKbDQcGf7c-49" value="" style="edgeStyle=orthogonalEdgeStyle;rounded=0;orthogonalLoop=1;jettySize=auto;html=1;" parent="WIyWlLk6GJQsqaUBKTNV-1" source="eYQngu6aigxKbDQcGf7c-46" target="eYQngu6aigxKbDQcGf7c-48" edge="1">
          <mxGeometry relative="1" as="geometry" />
        </mxCell>
        <mxCell id="eYQngu6aigxKbDQcGf7c-46" value="double y = f(x);" style="whiteSpace=wrap;html=1;" parent="WIyWlLk6GJQsqaUBKTNV-1" vertex="1">
          <mxGeometry x="375" y="1770" width="120" height="60" as="geometry" />
        </mxCell>
        <mxCell id="eYQngu6aigxKbDQcGf7c-50" style="edgeStyle=orthogonalEdgeStyle;rounded=0;orthogonalLoop=1;jettySize=auto;html=1;exitX=0.5;exitY=1;exitDx=0;exitDy=0;entryX=0;entryY=0.5;entryDx=0;entryDy=0;" parent="WIyWlLk6GJQsqaUBKTNV-1" source="eYQngu6aigxKbDQcGf7c-48" target="eYQngu6aigxKbDQcGf7c-38" edge="1">
          <mxGeometry relative="1" as="geometry">
            <mxPoint x="270" y="1630" as="targetPoint" />
            <Array as="points">
              <mxPoint x="435" y="1950" />
              <mxPoint x="180" y="1950" />
              <mxPoint x="180" y="1510" />
            </Array>
          </mxGeometry>
        </mxCell>
        <mxCell id="eYQngu6aigxKbDQcGf7c-48" value="cout &amp;lt;&amp;lt; &quot;x = &quot; &amp;lt;&amp;lt; x &amp;lt;&amp;lt; &quot;\tSn = &quot; &amp;lt;&amp;lt; Sn &amp;lt;&amp;lt; &quot;\tSe = &quot; &amp;lt;&amp;lt; Se &amp;lt;&amp;lt; &quot;\ty = &quot; &amp;lt;&amp;lt; y &amp;lt;&amp;lt; endl;" style="shape=parallelogram;perimeter=parallelogramPerimeter;whiteSpace=wrap;html=1;fixedSize=1;" parent="WIyWlLk6GJQsqaUBKTNV-1" vertex="1">
          <mxGeometry x="205" y="1860" width="460" height="60" as="geometry" />
        </mxCell>
        <mxCell id="eYQngu6aigxKbDQcGf7c-53" value="}" style="text;html=1;align=center;verticalAlign=middle;resizable=0;points=[];autosize=1;strokeColor=none;fillColor=none;" parent="WIyWlLk6GJQsqaUBKTNV-1" vertex="1">
          <mxGeometry x="435" y="1940" width="30" height="30" as="geometry" />
        </mxCell>
        <mxCell id="eYQngu6aigxKbDQcGf7c-54" value="}" style="text;html=1;align=center;verticalAlign=middle;resizable=0;points=[];autosize=1;strokeColor=none;fillColor=none;" parent="WIyWlLk6GJQsqaUBKTNV-1" vertex="1">
          <mxGeometry x="705" y="2010" width="30" height="30" as="geometry" />
        </mxCell>
        <mxCell id="eYQngu6aigxKbDQcGf7c-55" value="" style="endArrow=none;html=1;rounded=0;strokeWidth=3;" parent="WIyWlLk6GJQsqaUBKTNV-1" edge="1">
          <mxGeometry width="50" height="50" relative="1" as="geometry">
            <mxPoint x="580" y="150" as="sourcePoint" />
            <mxPoint x="580" as="targetPoint" />
          </mxGeometry>
        </mxCell>
        <mxCell id="eYQngu6aigxKbDQcGf7c-56" value="&lt;div&gt;#include &amp;lt;iostream&amp;gt;&lt;/div&gt;&lt;div&gt;#include &amp;lt;clocale&amp;gt;&lt;/div&gt;&lt;div&gt;#include &amp;lt;cmath&amp;gt;&lt;/div&gt;&lt;div&gt;#include &amp;lt;iomanip&amp;gt;&lt;/div&gt;&lt;div&gt;using namespace std;&lt;/div&gt;" style="text;html=1;align=left;verticalAlign=middle;resizable=0;points=[];autosize=1;strokeColor=none;fillColor=none;" parent="WIyWlLk6GJQsqaUBKTNV-1" vertex="1">
          <mxGeometry x="585" y="-10" width="140" height="90" as="geometry" />
        </mxCell>
        <mxCell id="eYQngu6aigxKbDQcGf7c-57" value="&lt;div&gt;double a = 0.1;&lt;/div&gt;&lt;div&gt;double b = 1.0;&lt;/div&gt;&lt;div&gt;&lt;span style=&quot;background-color: initial;&quot;&gt;int n = 40;&lt;/span&gt;&lt;/div&gt;&lt;div&gt;int k =10;&lt;/div&gt;&lt;div&gt;double s = 0.0;&lt;/div&gt;" style="text;html=1;align=left;verticalAlign=middle;resizable=0;points=[];autosize=1;strokeColor=none;fillColor=none;" parent="WIyWlLk6GJQsqaUBKTNV-1" vertex="1">
          <mxGeometry x="585" y="65" width="100" height="90" as="geometry" />
        </mxCell>
        <mxCell id="eYQngu6aigxKbDQcGf7c-58" value="" style="edgeStyle=orthogonalEdgeStyle;rounded=0;orthogonalLoop=1;jettySize=auto;html=1;exitX=1;exitY=0.5;exitDx=0;exitDy=0;" parent="WIyWlLk6GJQsqaUBKTNV-1" source="eYQngu6aigxKbDQcGf7c-38" target="eYQngu6aigxKbDQcGf7c-52" edge="1">
          <mxGeometry relative="1" as="geometry">
            <mxPoint x="700" y="2030" as="targetPoint" />
            <mxPoint x="533" y="1510" as="sourcePoint" />
          </mxGeometry>
        </mxCell>
        <mxCell id="eYQngu6aigxKbDQcGf7c-52" value="return 0;" style="ellipse;whiteSpace=wrap;html=1;" parent="WIyWlLk6GJQsqaUBKTNV-1" vertex="1">
          <mxGeometry x="635" y="1930" width="120" height="80" as="geometry" />
        </mxCell>
        <mxCell id="_p6gw4xu6n_L145d8y4m-2" value="" style="edgeStyle=orthogonalEdgeStyle;rounded=0;orthogonalLoop=1;jettySize=auto;html=1;" parent="WIyWlLk6GJQsqaUBKTNV-1" source="_p6gw4xu6n_L145d8y4m-0" target="_p6gw4xu6n_L145d8y4m-1" edge="1">
          <mxGeometry relative="1" as="geometry" />
        </mxCell>
        <mxCell id="_p6gw4xu6n_L145d8y4m-0" value="double F(double x, int n)&amp;nbsp;" style="shape=process;whiteSpace=wrap;html=1;backgroundOutline=1;" parent="WIyWlLk6GJQsqaUBKTNV-1" vertex="1">
          <mxGeometry x="-80" y="160" width="120" height="60" as="geometry" />
        </mxCell>
        <mxCell id="_p6gw4xu6n_L145d8y4m-1" value="return ((pow(-1, n) * (pow(x, 2 * n + 1) / (2 * n + 1))));" style="ellipse;whiteSpace=wrap;html=1;" parent="WIyWlLk6GJQsqaUBKTNV-1" vertex="1">
          <mxGeometry x="-130" y="290" width="220" height="80" as="geometry" />
        </mxCell>
        <mxCell id="_p6gw4xu6n_L145d8y4m-3" value="{" style="text;html=1;align=center;verticalAlign=middle;resizable=0;points=[];autosize=1;strokeColor=none;fillColor=none;" parent="WIyWlLk6GJQsqaUBKTNV-1" vertex="1">
          <mxGeometry x="-55" y="238" width="30" height="30" as="geometry" />
        </mxCell>
        <mxCell id="_p6gw4xu6n_L145d8y4m-4" value="}" style="text;html=1;align=center;verticalAlign=middle;resizable=0;points=[];autosize=1;strokeColor=none;fillColor=none;" parent="WIyWlLk6GJQsqaUBKTNV-1" vertex="1">
          <mxGeometry x="-5" y="378" width="30" height="30" as="geometry" />
        </mxCell>
        <mxCell id="_p6gw4xu6n_L145d8y4m-7" value="" style="edgeStyle=orthogonalEdgeStyle;rounded=0;orthogonalLoop=1;jettySize=auto;html=1;" parent="WIyWlLk6GJQsqaUBKTNV-1" source="_p6gw4xu6n_L145d8y4m-5" target="_p6gw4xu6n_L145d8y4m-6" edge="1">
          <mxGeometry relative="1" as="geometry" />
        </mxCell>
        <mxCell id="_p6gw4xu6n_L145d8y4m-9" value="1" style="edgeLabel;html=1;align=center;verticalAlign=middle;resizable=0;points=[];" parent="_p6gw4xu6n_L145d8y4m-7" vertex="1" connectable="0">
          <mxGeometry x="-0.7239" y="3" relative="1" as="geometry">
            <mxPoint x="-2" y="-21" as="offset" />
          </mxGeometry>
        </mxCell>
        <mxCell id="_p6gw4xu6n_L145d8y4m-5" value="if (n == 0)" style="rhombus;whiteSpace=wrap;html=1;" parent="WIyWlLk6GJQsqaUBKTNV-1" vertex="1">
          <mxGeometry x="-135" y="628" width="80" height="80" as="geometry" />
        </mxCell>
        <mxCell id="_p6gw4xu6n_L145d8y4m-6" value="return x;" style="ellipse;whiteSpace=wrap;html=1;" parent="WIyWlLk6GJQsqaUBKTNV-1" vertex="1">
          <mxGeometry x="-312.5" y="730" width="140" height="80" as="geometry" />
        </mxCell>
        <mxCell id="_p6gw4xu6n_L145d8y4m-8" value="" style="endArrow=classic;html=1;rounded=0;exitX=1;exitY=0.5;exitDx=0;exitDy=0;" parent="WIyWlLk6GJQsqaUBKTNV-1" source="_p6gw4xu6n_L145d8y4m-5" target="_p6gw4xu6n_L145d8y4m-11" edge="1">
          <mxGeometry width="50" height="50" relative="1" as="geometry">
            <mxPoint x="-30" y="920" as="sourcePoint" />
            <mxPoint x="-110" y="890" as="targetPoint" />
            <Array as="points">
              <mxPoint x="10" y="668" />
              <mxPoint x="10" y="840" />
              <mxPoint x="-110" y="840" />
            </Array>
          </mxGeometry>
        </mxCell>
        <mxCell id="_p6gw4xu6n_L145d8y4m-10" value="0" style="edgeLabel;html=1;align=center;verticalAlign=middle;resizable=0;points=[];" parent="_p6gw4xu6n_L145d8y4m-8" vertex="1" connectable="0">
          <mxGeometry x="-0.8121" y="1" relative="1" as="geometry">
            <mxPoint x="-3" y="-17" as="offset" />
          </mxGeometry>
        </mxCell>
        <mxCell id="_p6gw4xu6n_L145d8y4m-13" value="" style="edgeStyle=orthogonalEdgeStyle;rounded=0;orthogonalLoop=1;jettySize=auto;html=1;" parent="WIyWlLk6GJQsqaUBKTNV-1" source="_p6gw4xu6n_L145d8y4m-11" target="_p6gw4xu6n_L145d8y4m-12" edge="1">
          <mxGeometry relative="1" as="geometry" />
        </mxCell>
        <mxCell id="_p6gw4xu6n_L145d8y4m-11" value="double t = F(x,n);" style="rounded=0;whiteSpace=wrap;html=1;" parent="WIyWlLk6GJQsqaUBKTNV-1" vertex="1">
          <mxGeometry x="-170" y="870" width="120" height="60" as="geometry" />
        </mxCell>
        <mxCell id="_p6gw4xu6n_L145d8y4m-12" value="return (t + rad_n(x, n - 1));" style="ellipse;whiteSpace=wrap;html=1;rounded=0;" parent="WIyWlLk6GJQsqaUBKTNV-1" vertex="1">
          <mxGeometry x="-190" y="1000" width="160" height="80" as="geometry" />
        </mxCell>
        <mxCell id="_p6gw4xu6n_L145d8y4m-14" value="}" style="text;html=1;align=center;verticalAlign=middle;resizable=0;points=[];autosize=1;strokeColor=none;fillColor=none;" parent="WIyWlLk6GJQsqaUBKTNV-1" vertex="1">
          <mxGeometry x="-110" y="1090" width="30" height="30" as="geometry" />
        </mxCell>
        <mxCell id="_p6gw4xu6n_L145d8y4m-19" value="" style="edgeStyle=orthogonalEdgeStyle;rounded=0;orthogonalLoop=1;jettySize=auto;html=1;" parent="WIyWlLk6GJQsqaUBKTNV-1" source="_p6gw4xu6n_L145d8y4m-15" target="_p6gw4xu6n_L145d8y4m-18" edge="1">
          <mxGeometry relative="1" as="geometry" />
        </mxCell>
        <mxCell id="_p6gw4xu6n_L145d8y4m-15" value="double rad_e(double x, int n , double s)" style="shape=process;whiteSpace=wrap;html=1;backgroundOutline=1;" parent="WIyWlLk6GJQsqaUBKTNV-1" vertex="1">
          <mxGeometry x="-340" y="1170" width="285" height="60" as="geometry" />
        </mxCell>
        <mxCell id="_p6gw4xu6n_L145d8y4m-21" value="" style="edgeStyle=orthogonalEdgeStyle;rounded=0;orthogonalLoop=1;jettySize=auto;html=1;" parent="WIyWlLk6GJQsqaUBKTNV-1" source="_p6gw4xu6n_L145d8y4m-18" target="_p6gw4xu6n_L145d8y4m-20" edge="1">
          <mxGeometry relative="1" as="geometry" />
        </mxCell>
        <mxCell id="_p6gw4xu6n_L145d8y4m-18" value="double e = 0.0001;" style="whiteSpace=wrap;html=1;" parent="WIyWlLk6GJQsqaUBKTNV-1" vertex="1">
          <mxGeometry x="-257.5" y="1265" width="120" height="60" as="geometry" />
        </mxCell>
        <mxCell id="_p6gw4xu6n_L145d8y4m-23" value="" style="edgeStyle=orthogonalEdgeStyle;rounded=0;orthogonalLoop=1;jettySize=auto;html=1;" parent="WIyWlLk6GJQsqaUBKTNV-1" source="_p6gw4xu6n_L145d8y4m-20" target="_p6gw4xu6n_L145d8y4m-22" edge="1">
          <mxGeometry relative="1" as="geometry" />
        </mxCell>
        <mxCell id="_p6gw4xu6n_L145d8y4m-24" value="1" style="edgeLabel;html=1;align=center;verticalAlign=middle;resizable=0;points=[];" parent="_p6gw4xu6n_L145d8y4m-23" vertex="1" connectable="0">
          <mxGeometry x="-0.3413" y="1" relative="1" as="geometry">
            <mxPoint y="-9" as="offset" />
          </mxGeometry>
        </mxCell>
        <mxCell id="_p6gw4xu6n_L145d8y4m-29" style="edgeStyle=orthogonalEdgeStyle;rounded=0;orthogonalLoop=1;jettySize=auto;html=1;exitX=1;exitY=0.5;exitDx=0;exitDy=0;" parent="WIyWlLk6GJQsqaUBKTNV-1" source="_p6gw4xu6n_L145d8y4m-20" edge="1">
          <mxGeometry relative="1" as="geometry">
            <mxPoint x="-192.5" y="1680" as="targetPoint" />
            <Array as="points">
              <mxPoint x="-122.5" y="1408" />
              <mxPoint x="-122.5" y="1660" />
            </Array>
          </mxGeometry>
        </mxCell>
        <mxCell id="_p6gw4xu6n_L145d8y4m-30" value="0" style="edgeLabel;html=1;align=center;verticalAlign=middle;resizable=0;points=[];" parent="_p6gw4xu6n_L145d8y4m-29" vertex="1" connectable="0">
          <mxGeometry x="-0.8995" relative="1" as="geometry">
            <mxPoint x="2" y="-8" as="offset" />
          </mxGeometry>
        </mxCell>
        <mxCell id="_p6gw4xu6n_L145d8y4m-20" value="if (n == 0)&amp;nbsp;" style="rhombus;whiteSpace=wrap;html=1;" parent="WIyWlLk6GJQsqaUBKTNV-1" vertex="1">
          <mxGeometry x="-237.5" y="1368" width="80" height="80" as="geometry" />
        </mxCell>
        <mxCell id="_p6gw4xu6n_L145d8y4m-27" value="" style="edgeStyle=orthogonalEdgeStyle;rounded=0;orthogonalLoop=1;jettySize=auto;html=1;" parent="WIyWlLk6GJQsqaUBKTNV-1" source="_p6gw4xu6n_L145d8y4m-22" target="_p6gw4xu6n_L145d8y4m-26" edge="1">
          <mxGeometry relative="1" as="geometry" />
        </mxCell>
        <mxCell id="_p6gw4xu6n_L145d8y4m-22" value="s=x;" style="whiteSpace=wrap;html=1;" parent="WIyWlLk6GJQsqaUBKTNV-1" vertex="1">
          <mxGeometry x="-442.5" y="1460" width="120" height="60" as="geometry" />
        </mxCell>
        <mxCell id="_p6gw4xu6n_L145d8y4m-25" value="{" style="text;html=1;align=center;verticalAlign=middle;resizable=0;points=[];autosize=1;strokeColor=none;fillColor=none;" parent="WIyWlLk6GJQsqaUBKTNV-1" vertex="1">
          <mxGeometry x="-407.5" y="1408" width="30" height="30" as="geometry" />
        </mxCell>
        <mxCell id="_p6gw4xu6n_L145d8y4m-26" value="return s;" style="ellipse;whiteSpace=wrap;html=1;" parent="WIyWlLk6GJQsqaUBKTNV-1" vertex="1">
          <mxGeometry x="-452.5" y="1560" width="140" height="80" as="geometry" />
        </mxCell>
        <mxCell id="_p6gw4xu6n_L145d8y4m-28" value="}" style="text;html=1;align=center;verticalAlign=middle;resizable=0;points=[];autosize=1;strokeColor=none;fillColor=none;" parent="WIyWlLk6GJQsqaUBKTNV-1" vertex="1">
          <mxGeometry x="-382.5" y="1650" width="30" height="30" as="geometry" />
        </mxCell>
        <mxCell id="_p6gw4xu6n_L145d8y4m-34" value="" style="edgeStyle=orthogonalEdgeStyle;rounded=0;orthogonalLoop=1;jettySize=auto;html=1;" parent="WIyWlLk6GJQsqaUBKTNV-1" source="_p6gw4xu6n_L145d8y4m-32" target="_p6gw4xu6n_L145d8y4m-33" edge="1">
          <mxGeometry relative="1" as="geometry" />
        </mxCell>
        <mxCell id="_p6gw4xu6n_L145d8y4m-32" value="double x1 = F(x,n);" style="whiteSpace=wrap;html=1;" parent="WIyWlLk6GJQsqaUBKTNV-1" vertex="1">
          <mxGeometry x="-252.5" y="1680" width="120" height="60" as="geometry" />
        </mxCell>
        <mxCell id="_p6gw4xu6n_L145d8y4m-36" value="" style="edgeStyle=orthogonalEdgeStyle;rounded=0;orthogonalLoop=1;jettySize=auto;html=1;" parent="WIyWlLk6GJQsqaUBKTNV-1" source="_p6gw4xu6n_L145d8y4m-33" edge="1">
          <mxGeometry relative="1" as="geometry">
            <mxPoint x="-192.49999999999955" y="1860.0000000000005" as="targetPoint" />
          </mxGeometry>
        </mxCell>
        <mxCell id="_p6gw4xu6n_L145d8y4m-33" value="double s1 = rad_e(x, n - 1, s) + x1;" style="whiteSpace=wrap;html=1;" parent="WIyWlLk6GJQsqaUBKTNV-1" vertex="1">
          <mxGeometry x="-287.5" y="1770" width="190" height="60" as="geometry" />
        </mxCell>
        <mxCell id="_p6gw4xu6n_L145d8y4m-38" value="" style="edgeStyle=orthogonalEdgeStyle;rounded=0;orthogonalLoop=1;jettySize=auto;html=1;" parent="WIyWlLk6GJQsqaUBKTNV-1" source="_p6gw4xu6n_L145d8y4m-35" target="_p6gw4xu6n_L145d8y4m-37" edge="1">
          <mxGeometry relative="1" as="geometry" />
        </mxCell>
        <mxCell id="_p6gw4xu6n_L145d8y4m-41" value="1" style="edgeLabel;html=1;align=center;verticalAlign=middle;resizable=0;points=[];" parent="_p6gw4xu6n_L145d8y4m-38" vertex="1" connectable="0">
          <mxGeometry x="-0.5648" y="2" relative="1" as="geometry">
            <mxPoint y="-12" as="offset" />
          </mxGeometry>
        </mxCell>
        <mxCell id="_p6gw4xu6n_L145d8y4m-39" style="edgeStyle=orthogonalEdgeStyle;rounded=0;orthogonalLoop=1;jettySize=auto;html=1;exitX=1;exitY=0.5;exitDx=0;exitDy=0;" parent="WIyWlLk6GJQsqaUBKTNV-1" source="_p6gw4xu6n_L145d8y4m-35" edge="1">
          <mxGeometry relative="1" as="geometry">
            <mxPoint x="-200" y="2100" as="targetPoint" />
            <Array as="points">
              <mxPoint x="-100" y="1900" />
              <mxPoint x="-100" y="2080" />
            </Array>
          </mxGeometry>
        </mxCell>
        <mxCell id="_p6gw4xu6n_L145d8y4m-40" value="0" style="edgeLabel;html=1;align=center;verticalAlign=middle;resizable=0;points=[];" parent="_p6gw4xu6n_L145d8y4m-39" vertex="1" connectable="0">
          <mxGeometry x="-0.9205" y="-1" relative="1" as="geometry">
            <mxPoint x="3" y="-11" as="offset" />
          </mxGeometry>
        </mxCell>
        <mxCell id="_p6gw4xu6n_L145d8y4m-35" value="if (abs(s1 -s)&amp;lt;e)" style="rhombus;whiteSpace=wrap;html=1;" parent="WIyWlLk6GJQsqaUBKTNV-1" vertex="1">
          <mxGeometry x="-238.75" y="1860" width="92.5" height="80" as="geometry" />
        </mxCell>
        <mxCell id="_p6gw4xu6n_L145d8y4m-37" value="return s1;" style="ellipse;whiteSpace=wrap;html=1;" parent="WIyWlLk6GJQsqaUBKTNV-1" vertex="1">
          <mxGeometry x="-360" y="1960" width="80" height="80" as="geometry" />
        </mxCell>
        <mxCell id="_p6gw4xu6n_L145d8y4m-44" value="" style="edgeStyle=orthogonalEdgeStyle;rounded=0;orthogonalLoop=1;jettySize=auto;html=1;" parent="WIyWlLk6GJQsqaUBKTNV-1" source="_p6gw4xu6n_L145d8y4m-42" target="_p6gw4xu6n_L145d8y4m-43" edge="1">
          <mxGeometry relative="1" as="geometry" />
        </mxCell>
        <mxCell id="_p6gw4xu6n_L145d8y4m-42" value="s = s1;" style="whiteSpace=wrap;html=1;" parent="WIyWlLk6GJQsqaUBKTNV-1" vertex="1">
          <mxGeometry x="-257.5" y="2100" width="120" height="60" as="geometry" />
        </mxCell>
        <mxCell id="_p6gw4xu6n_L145d8y4m-43" value="return s;" style="ellipse;whiteSpace=wrap;html=1;" parent="WIyWlLk6GJQsqaUBKTNV-1" vertex="1">
          <mxGeometry x="-256.25" y="2190" width="117.5" height="80" as="geometry" />
        </mxCell>
        <mxCell id="_p6gw4xu6n_L145d8y4m-45" value="}" style="text;html=1;align=center;verticalAlign=middle;resizable=0;points=[];autosize=1;strokeColor=none;fillColor=none;" parent="WIyWlLk6GJQsqaUBKTNV-1" vertex="1">
          <mxGeometry x="-195" y="2278" width="30" height="30" as="geometry" />
        </mxCell>
        <mxCell id="_p6gw4xu6n_L145d8y4m-46" value="{" style="text;html=1;align=center;verticalAlign=middle;resizable=0;points=[];autosize=1;strokeColor=none;fillColor=none;" parent="WIyWlLk6GJQsqaUBKTNV-1" vertex="1">
          <mxGeometry x="-245" y="1238" width="30" height="30" as="geometry" />
        </mxCell>
        <mxCell id="_p6gw4xu6n_L145d8y4m-47" value="" style="endArrow=none;dashed=1;html=1;rounded=0;" parent="WIyWlLk6GJQsqaUBKTNV-1" edge="1">
          <mxGeometry width="50" height="50" relative="1" as="geometry">
            <mxPoint x="440" y="100" as="sourcePoint" />
            <mxPoint x="580" y="100" as="targetPoint" />
          </mxGeometry>
        </mxCell>
        <mxCell id="V9U3sVe_B-FB67b7JL7a-0" value="" style="endArrow=none;html=1;rounded=0;strokeWidth=3;" edge="1" parent="WIyWlLk6GJQsqaUBKTNV-1">
          <mxGeometry width="50" height="50" relative="1" as="geometry">
            <mxPoint x="580" y="150" as="sourcePoint" />
            <mxPoint x="680" y="150" as="targetPoint" />
          </mxGeometry>
        </mxCell>
        <mxCell id="V9U3sVe_B-FB67b7JL7a-1" value="" style="endArrow=none;html=1;rounded=0;strokeWidth=3;entryX=0.679;entryY=0.111;entryDx=0;entryDy=0;entryPerimeter=0;" edge="1" parent="WIyWlLk6GJQsqaUBKTNV-1" target="eYQngu6aigxKbDQcGf7c-56">
          <mxGeometry width="50" height="50" relative="1" as="geometry">
            <mxPoint x="580" as="sourcePoint" />
            <mxPoint x="670" y="30" as="targetPoint" />
          </mxGeometry>
        </mxCell>
        <mxCell id="V9U3sVe_B-FB67b7JL7a-6" value="cout &amp;lt;&amp;lt; fixed &amp;lt;&amp;lt; setprecision(6);" style="shape=parallelogram;perimeter=parallelogramPerimeter;whiteSpace=wrap;html=1;fixedSize=1;" vertex="1" parent="WIyWlLk6GJQsqaUBKTNV-1">
          <mxGeometry x="375" y="1300" width="120" height="60" as="geometry" />
        </mxCell>
      </root>
    </mxGraphModel>
  </diagram>
</mxfile>
